<?xml version="1.0" encoding="UTF-8"?>
<svg version="1.1" xmlns="http://www.w3.org/2000/svg" width="1024" height="210">
<path d="M0 0 C5.94 0 11.88 0 18 0 C18 0.33 18 0.66 18 1 C19.83111328 1.34611328 19.83111328 1.34611328 21.69921875 1.69921875 C41.3519332 5.53682585 60.0017437 12.30190214 75 26 C75.75361816 26.6820752 75.75361816 26.6820752 76.52246094 27.37792969 C93.94421476 43.33479129 105.43743202 63.47476661 109 87 C109.12890625 87.78117187 109.2578125 88.56234375 109.390625 89.3671875 C112.95803498 114.99621186 105.80445825 140.59871032 91.16796875 161.6328125 C73.25388011 185.09084014 49.79423999 198.74718624 20.73046875 203.5390625 C17.91814012 203.9417863 17.91814012 203.9417863 15 205 C-14.15571587 204.90875109 -41.05275742 195.34162502 -62 175 C-62.75796875 174.31550781 -63.5159375 173.63101563 -64.296875 172.92578125 C-82.19497806 156.23117133 -91.70382559 130.46591171 -93.22265625 106.484375 C-93.93214528 77.48786687 -83.26003827 52.09636285 -63.51611328 31.13330078 C-56.71109958 24.10152078 -49.48844555 18.82253489 -41 14 C-40.04867187 13.44828125 -39.09734375 12.8965625 -38.1171875 12.328125 C-29.81399659 7.8411639 -20.90721711 5.23160437 -11.89428711 2.5690918 C-10.25351245 2.07616156 -8.62530291 1.54176764 -7 1 C-4.66700175 0.96045766 -2.33291811 0.95598268 0 1 C0 0.67 0 0.34 0 0 Z " fill="#15324F" transform="translate(97,2)"/>
<path d="M0 0 C9.05131785 6.38212014 15.00551078 14.8544899 17.44921875 25.6796875 C17.91873018 28.70743428 17.88135099 31.58585747 17.75390625 34.64453125 C18.74390625 34.56203125 19.73390625 34.47953125 20.75390625 34.39453125 C26.5449284 34.37099051 31.0758241 37.52580982 35.75390625 40.64453125 C35.75390625 41.30453125 35.75390625 41.96453125 35.75390625 42.64453125 C36.41390625 42.64453125 37.07390625 42.64453125 37.75390625 42.64453125 C39.0078125 44.2890625 39.0078125 44.2890625 40.31640625 46.45703125 C40.96802734 47.51857422 40.96802734 47.51857422 41.6328125 48.6015625 C45.23406662 55.16412663 44.91570444 64.52394794 42.91796875 71.609375 C39.96718058 78.03575595 35.44017457 83.88054712 28.66468048 86.43094826 C22.60291987 88.36210172 17.2144826 89.07773643 10.87304688 89.03271484 C9.94155319 89.0379718 9.01005951 89.04322876 8.05033875 89.04864502 C5.00343531 89.06173526 1.95706403 89.05314602 -1.08984375 89.04296875 C-3.22636006 89.04499264 -5.36287569 89.04790669 -7.49938965 89.05166626 C-11.96434138 89.05607476 -16.42911235 89.04970608 -20.89404297 89.03564453 C-26.59657941 89.01855371 -32.29869215 89.02840279 -38.00121307 89.04636192 C-42.40919139 89.0572396 -46.81707045 89.05373516 -51.22505188 89.04597855 C-53.32684887 89.04398755 -55.42865508 89.04639683 -57.53044128 89.05341721 C-60.47561269 89.06109747 -63.42011255 89.04933587 -66.36523438 89.03271484 C-67.2205928 89.03878754 -68.07595123 89.04486023 -68.95722961 89.05111694 C-79.35994308 88.94320165 -87.79832419 86.00398734 -95.24609375 78.64453125 C-100.73549872 71.95013494 -102.9930079 64.30873537 -102.24609375 55.64453125 C-100.02522988 45.48043166 -95.51845372 38.91342904 -87.24609375 32.64453125 C-86.18648437 32.16306641 -86.18648437 32.16306641 -85.10546875 31.671875 C-82.77955828 30.3867606 -82.43807377 29.40329568 -81.49609375 26.95703125 C-79.21857559 21.98460116 -75.67068311 18.77899394 -71.24609375 15.64453125 C-68.16103287 14.61617762 -65.97666655 14.51084691 -62.74609375 14.51953125 C-61.78703125 14.51695313 -60.82796875 14.514375 -59.83984375 14.51171875 C-57.24609375 14.64453125 -57.24609375 14.64453125 -54.24609375 15.64453125 C-53.71822266 14.77441406 -53.71822266 14.77441406 -53.1796875 13.88671875 C-47.24892779 4.50280129 -40.05074122 -1.48122433 -29.35546875 -4.97265625 C-18.93047639 -6.86459931 -9.05812154 -5.46637944 0 0 Z " fill="#FDFDFD" transform="translate(133.24609375,93.35546875)"/>
<path d="M0 0 C7.26 0 14.52 0 22 0 C26.92719841 15.10293426 31.42740431 30.28425349 35.71044922 45.5793457 C35.92125122 46.32772705 36.13205322 47.0761084 36.34924316 47.84716797 C36.74936274 49.26814742 37.14669485 50.68991547 37.54089355 52.11254883 C38.26387092 55.32133774 38.26387092 55.32133774 40 58 C40.21075668 57.28812027 40.42151337 56.57624054 40.63865662 55.8427887 C42.62181602 49.14629829 44.60804611 42.45072572 46.59776211 35.75618076 C47.62067569 32.31411318 48.64238291 28.87169695 49.66137695 25.4284668 C50.83190466 21.47338835 52.00759899 17.5198626 53.18359375 13.56640625 C53.55028671 12.32476212 53.91697968 11.08311798 54.29478455 9.80384827 C54.6350618 8.66274094 54.97533905 7.52163361 55.32592773 6.34594727 C55.6257103 5.335569 55.92549286 4.32519073 56.23435974 3.28419495 C57 1 57 1 58 0 C64.93 0 71.86 0 79 0 C79 33.99 79 67.98 79 103 C73.39 103 67.78 103 62 103 C61.67 83.2 61.34 63.4 61 43 C56.38 58.18 51.76 73.36 47 89 C42.38 89 37.76 89 33 89 C31.48636648 84.48406422 29.97481793 79.96743758 28.46508789 75.45019531 C27.95262125 73.9177833 27.43961332 72.3855522 26.92602539 70.85351562 C26.18228448 68.63460408 25.44057887 66.41502047 24.69921875 64.1953125 C24.47409103 63.52509064 24.24896332 62.85486877 24.01701355 62.16433716 C22.22942535 56.80218627 20.62655925 51.42186418 19 46 C18.67 64.81 18.34 83.62 18 103 C12.06 103 6.12 103 0 103 C0 69.01 0 35.02 0 0 Z " fill="#153250" transform="translate(221,50)"/>
<path d="M0 0 C6.27 0 12.54 0 19 0 C19 7.26 19 14.52 19 22 C22.3 22 25.6 22 29 22 C29 27.61 29 33.22 29 39 C25.7 39 22.4 39 19 39 C19.11826743 43.78735926 19.24251713 48.57451171 19.37231445 53.36157227 C19.41562749 54.99011004 19.45730518 56.61869216 19.49731445 58.24731445 C19.55510503 60.58818935 19.61877398 62.92884176 19.68359375 65.26953125 C19.70030624 65.99775589 19.71701874 66.72598053 19.73423767 67.47627258 C19.82467238 70.56166939 20.01723993 73.05171978 21 76 C23.64 76.33 26.28 76.66 29 77 C29 83.27 29 89.54 29 96 C11.33618844 96.46895075 11.33618844 96.46895075 4.1875 90.75 C-0.49396346 84.86473165 -0.27952879 78.32931726 -0.1953125 71.12890625 C-0.1924826 70.206577 -0.18965271 69.28424774 -0.18673706 68.33396912 C-0.17560974 65.41000987 -0.15051912 62.48636549 -0.125 59.5625 C-0.11496057 57.57096799 -0.1058364 55.57943114 -0.09765625 53.58789062 C-0.07569483 48.7251405 -0.04121673 43.8626235 0 39 C-2.31 39 -4.62 39 -7 39 C-7.33 35.7 -7.66 32.4 -8 29 C-9.32 32.96 -10.64 36.92 -12 41 C-13.711875 40.938125 -15.42375 40.87625 -17.1875 40.8125 C-21.61422084 40.82387975 -24.62910329 40.8465805 -28 44 C-30.72809108 48.86689989 -30.35015519 54.12676636 -30.4140625 59.55078125 C-30.43342865 60.56472458 -30.4527948 61.57866791 -30.4727478 62.62333679 C-30.53239426 65.85297303 -30.57886951 69.0826452 -30.625 72.3125 C-30.66319349 74.50587468 -30.70224602 76.69923458 -30.7421875 78.89257812 C-30.83969601 84.26164065 -30.91938401 89.63055101 -31 95 C-37.6 95 -44.2 95 -51 95 C-51 70.91 -51 46.82 -51 22 C-44.4 22 -37.8 22 -31 22 C-30.67 23.98 -30.34 25.96 -30 28 C-29.56429687 27.59007813 -29.12859375 27.18015625 -28.6796875 26.7578125 C-24.48892609 22.96617122 -20.89147621 19.85397838 -14.91796875 20.078125 C-12.08923425 20.38393413 -9.56209773 20.71895114 -7 22 C-4.69 22 -2.38 22 0 22 C0 14.74 0 7.48 0 0 Z " fill="#153250" transform="translate(622,58)"/>
<path d="M0 0 C5.96791225 4.8564792 8.66290495 10.86849307 9.6875 18.375 C7.06440901 19.54612946 4.43921858 20.71205964 1.8125 21.875 C1.06613281 22.20886719 0.31976562 22.54273437 -0.44921875 22.88671875 C-1.16464844 23.20253906 -1.88007812 23.51835938 -2.6171875 23.84375 C-3.27702637 24.13701172 -3.93686523 24.43027344 -4.61669922 24.73242188 C-6.3125 25.375 -6.3125 25.375 -8.3125 25.375 C-8.54324219 24.83230469 -8.77398438 24.28960937 -9.01171875 23.73046875 C-10.53894714 20.38022465 -11.78534828 17.84357931 -14.5625 15.375 C-18.25016486 14.03403096 -21.43389025 13.77949628 -25.3125 14.375 C-29.05797604 16.10467713 -29.05797604 16.10467713 -31.3125 19.375 C-31.58624623 21.41451356 -31.58624623 21.41451356 -31.625 23.6875 C-31.66238281 24.44675781 -31.69976563 25.20601562 -31.73828125 25.98828125 C-31.12154592 29.445394 -29.82004572 30.92725266 -27.3125 33.375 C-24.73378744 34.58466097 -22.36718201 35.54896398 -19.6875 36.4375 C-18.24730076 36.95025386 -16.80719638 37.46327427 -15.3671875 37.9765625 C-13.02028523 38.789996 -10.67051966 39.59458074 -8.3203125 40.3984375 C-0.62743204 43.20238458 5.51380959 47.19709803 9.1875 54.75 C12.46992922 64.34817473 12.16033714 76.70478344 8.140625 86.00390625 C4.20015369 92.4336538 -1.58300569 96.9644668 -8.875 98.9140625 C-20.57243345 101.12607716 -33.07875856 101.26905892 -43.3125 94.375 C-49.72156988 88.83989419 -52.4380386 83.40958566 -54.3125 75.375 C-51.5225561 74.20405995 -48.73071403 73.03809073 -45.9375 71.875 C-45.1434375 71.54113281 -44.349375 71.20726563 -43.53125 70.86328125 C-42.77070312 70.54746094 -42.01015625 70.23164062 -41.2265625 69.90625 C-40.1739624 69.46635742 -40.1739624 69.46635742 -39.10009766 69.01757812 C-37.3125 68.375 -37.3125 68.375 -35.3125 68.375 C-34.94898438 69.18904297 -34.94898438 69.18904297 -34.578125 70.01953125 C-34.24296875 70.73496094 -33.9078125 71.45039062 -33.5625 72.1875 C-33.23765625 72.89519531 -32.9128125 73.60289062 -32.578125 74.33203125 C-30.61051598 77.50814087 -28.56382818 79.04874612 -24.9453125 79.9921875 C-19.53331412 80.54856117 -15.96519714 80.63188799 -11.3125 77.375 C-9.21187245 74.22405867 -8.96936714 73.1525634 -8.875 69.5 C-8.83503906 68.65695313 -8.79507813 67.81390625 -8.75390625 66.9453125 C-9.57833018 63.15180939 -11.31184071 61.78425951 -14.3125 59.375 C-16.90301457 58.19243427 -19.32079875 57.21116129 -22 56.3125 C-23.42727804 55.80393153 -24.85436175 55.29481735 -26.28125 54.78515625 C-26.97089844 54.5442627 -27.66054688 54.30336914 -28.37109375 54.05517578 C-38.49783527 50.50725049 -45.28501449 47.27527915 -50.3125 37.375 C-52.66147113 29.34960998 -52.91055015 17.84869248 -49.625 10.125 C-48.50390625 8.12890625 -48.50390625 8.12890625 -47.3125 6.375 C-46.95027344 5.80652344 -46.58804688 5.23804688 -46.21484375 4.65234375 C-41.78383707 -1.46094343 -34.8984234 -3.94076461 -27.7265625 -5.30859375 C-17.77339407 -6.61313524 -8.47630908 -5.71436567 0 0 Z " fill="#3F4C55" transform="translate(1004.3125,54.625)"/>
<path d="M0 0 C4.62 0 9.24 0 14 0 C17.1569345 10.21537654 20.31296756 20.43103112 23.46791267 30.64702225 C24.93358583 35.39290577 26.3995463 40.13870012 27.86621094 44.88427734 C29.28692036 49.48120099 30.70681302 54.07837624 32.12618637 58.67571259 C32.66241434 60.41207242 33.19891546 62.14834793 33.73572159 63.88452911 C35.49877543 69.58715753 37.25466308 75.29192301 39 81 C39.27906944 81.91257065 39.55813889 82.8251413 39.84566498 83.7653656 C40.6934024 86.54402935 41.53665328 89.32401387 42.37841797 92.10449219 C42.64124132 92.96573322 42.90406467 93.82697426 43.17485237 94.71431351 C43.41426992 95.50861141 43.65368748 96.30290932 43.90036011 97.12127686 C44.11319075 97.82348736 44.32602139 98.52569786 44.54530144 99.24918747 C45 101 45 101 45 103 C38.4 103 31.8 103 25 103 C21 90.375 21 90.375 21 87 C11.76 87 2.52 87 -7 87 C-7.99 91.95 -7.99 91.95 -9 97 C-9.66 98.98 -10.32 100.96 -11 103 C-17.6 103 -24.2 103 -31 103 C-28.5540588 92.67141953 -25.49391884 82.59001927 -22.34375 72.4609375 C-21.7944231 70.68609602 -21.2453971 68.91116138 -20.69665527 67.13613892 C-19.26053985 62.49334189 -17.82063847 57.85172807 -16.37982178 53.21038818 C-14.63311672 47.58130851 -12.89075434 41.95088351 -11.14789581 36.32061195 C-9.79129276 31.93834364 -8.43402607 27.55628507 -7.07458496 23.17489624 C-4.68176849 15.45996511 -2.30103145 7.74295123 0 0 Z M6 38 C3.36 48.23 0.72 58.46 -2 69 C3.94 69 9.88 69 16 69 C14.90471794 64.74368295 13.80472567 60.48922124 12.69189453 56.23754883 C12.3146288 54.79006372 11.94026804 53.34181829 11.56884766 51.89282227 C11.03524883 49.81320976 10.49134889 47.73653273 9.9453125 45.66015625 C9.62062988 44.40855713 9.29594727 43.15695801 8.96142578 41.86743164 C8.33236512 38.87207415 8.33236512 38.87207415 6 38 Z " fill="#3F4C55" transform="translate(841,50)"/>
<path d="M0 0 C7.48134109 5.9625726 10.7551619 13.95167654 12.44140625 23.171875 C12.74316447 25.96426452 12.703125 28.78510313 12.703125 31.59375 C6.103125 31.59375 -0.496875 31.59375 -7.296875 31.59375 C-7.956875 28.62375 -8.616875 25.65375 -9.296875 22.59375 C-11.07156791 18.86389087 -11.07156791 18.86389087 -14.296875 16.59375 C-20.09043386 16.07340948 -20.09043386 16.07340948 -25.234375 18.40625 C-28.25165413 21.60639453 -28.42573282 24.20598825 -28.47387695 28.42895508 C-28.48671219 29.41039993 -28.49954742 30.39184479 -28.51277161 31.4030304 C-28.52015854 32.46241318 -28.52754547 33.52179596 -28.53515625 34.61328125 C-28.543228 35.70460861 -28.55129974 36.79593597 -28.55961609 37.92033386 C-28.57345161 40.23113417 -28.58417614 42.54195486 -28.59204102 44.8527832 C-28.60925704 48.38206787 -28.65314959 51.91041661 -28.69726562 55.43945312 C-28.70739243 57.68488895 -28.71590857 59.93033273 -28.72265625 62.17578125 C-28.74016434 63.22909134 -28.75767242 64.28240143 -28.77571106 65.36763 C-28.75785987 71.41389919 -28.38709556 75.01527274 -24.296875 79.59375 C-20.74548264 81.36944618 -16.85305008 80.93956668 -13.046875 80.09375 C-9.01021958 76.63375964 -8.28917775 70.55526375 -7.296875 65.59375 C-0.696875 65.59375 5.903125 65.59375 12.703125 65.59375 C12.21944539 75.99286154 10.59569873 85.39717583 3.703125 93.59375 C-3.57933134 100.05324219 -11.29570639 101.860903 -20.89453125 101.43359375 C-30.17528682 100.41122175 -36.28077542 98.07088337 -42.609375 91.21875 C-49.47416857 82.61910371 -49.45937219 73.25241316 -49.5 62.765625 C-49.50570007 61.62144104 -49.51140015 60.47725708 -49.51727295 59.29840088 C-49.52670133 56.88107217 -49.53324832 54.46373073 -49.53710938 52.04638672 C-49.54680435 48.37053715 -49.57784491 44.69524952 -49.609375 41.01953125 C-49.61590694 38.6640658 -49.62115666 36.30859637 -49.625 33.953125 C-49.6373468 32.86424988 -49.6496936 31.77537476 -49.66241455 30.65350342 C-49.63135176 19.87888606 -47.26386167 10.96786206 -40.296875 2.59375 C-29.94036028 -6.55851883 -11.60273887 -7.10371768 0 0 Z " fill="#3F4C55" transform="translate(934.296875,53.40625)"/>
<path d="M0 0 C6.27 0 12.54 0 19 0 C19.02505615 1.55428711 19.0501123 3.10857422 19.07592773 4.70996094 C19.17004583 10.4724157 19.270256 16.23475116 19.37231445 21.99707031 C19.4156466 24.49183361 19.45732291 26.98662623 19.49731445 29.48144531 C19.55505836 33.06584516 19.61874135 36.6500976 19.68359375 40.234375 C19.70030624 41.35116638 19.71701874 42.46795776 19.73423767 43.61859131 C19.75418289 44.65936829 19.77412811 45.70014526 19.79467773 46.77246094 C19.81799416 48.14479889 19.81799416 48.14479889 19.84178162 49.54486084 C19.98875603 51.8255227 20.36277186 53.81130585 21 56 C22.43655854 56.08131463 23.8744483 56.13933559 25.3125 56.1875 C26.11300781 56.22230469 26.91351562 56.25710937 27.73828125 56.29296875 C30.02608339 56.18292197 30.02608339 56.18292197 31.61433411 54.80705261 C33.47269994 52.38355006 33.39629464 50.83199142 33.43237305 47.79418945 C33.45216721 46.73331619 33.47196136 45.67244293 33.49235535 44.579422 C33.49874527 43.43559555 33.50513519 42.2917691 33.51171875 41.11328125 C33.52966995 39.94113571 33.54762115 38.76899017 33.56611633 37.56132507 C33.62036654 33.81175349 33.65416302 30.06231026 33.6875 26.3125 C33.72065999 23.77276854 33.7551484 21.23305405 33.79101562 18.69335938 C33.87610185 12.46233199 33.9428433 6.23134366 34 0 C40.27 0 46.54 0 53 0 C53 24.09 53 48.18 53 73 C46.73 73 40.46 73 34 73 C33.67 71.35 33.34 69.7 33 68 C32.360625 68.78375 31.72125 69.5675 31.0625 70.375 C27.58507591 73.81324185 23.79607116 74.68806041 19 75 C13.78298117 74.65620963 9.15019667 73.35379398 5.27069092 69.64584351 C-0.52456344 62.13962652 -0.54449397 53.40677607 -0.390625 44.3359375 C-0.38496521 43.06271637 -0.37930542 41.78949524 -0.37347412 40.47769165 C-0.3549977 37.12689809 -0.31919754 33.77723918 -0.2746582 30.42675781 C-0.2334059 26.99423922 -0.21539987 23.56160239 -0.1953125 20.12890625 C-0.15140001 13.41892285 -0.08245109 6.70961602 0 0 Z " fill="#153250" transform="translate(660,80)"/>
<path d="M0 0 C6.27 0 12.54 0 19 0 C19.02505615 1.55428711 19.0501123 3.10857422 19.07592773 4.70996094 C19.17004583 10.4724157 19.270256 16.23475116 19.37231445 21.99707031 C19.4156466 24.49183361 19.45732291 26.98662623 19.49731445 29.48144531 C19.55505836 33.06584516 19.61874135 36.6500976 19.68359375 40.234375 C19.70030624 41.35116638 19.71701874 42.46795776 19.73423767 43.61859131 C19.75418289 44.65936829 19.77412811 45.70014526 19.79467773 46.77246094 C19.81799416 48.14479889 19.81799416 48.14479889 19.84178162 49.54486084 C19.98875603 51.8255227 20.36277186 53.81130585 21 56 C22.43655854 56.08131463 23.8744483 56.13933559 25.3125 56.1875 C26.11300781 56.22230469 26.91351563 56.25710937 27.73828125 56.29296875 C30.02608339 56.18292197 30.02608339 56.18292197 31.61433411 54.80705261 C33.47269994 52.38355006 33.39629464 50.83199142 33.43237305 47.79418945 C33.45216721 46.73331619 33.47196136 45.67244293 33.49235535 44.579422 C33.49874527 43.43559555 33.50513519 42.2917691 33.51171875 41.11328125 C33.52966995 39.94113571 33.54762115 38.76899017 33.56611633 37.56132507 C33.62036654 33.81175349 33.65416302 30.06231026 33.6875 26.3125 C33.72065999 23.77276854 33.7551484 21.23305405 33.79101562 18.69335938 C33.87610185 12.46233199 33.9428433 6.23134366 34 0 C40.27 0 46.54 0 53 0 C53 24.09 53 48.18 53 73 C46.73 73 40.46 73 34 73 C33.67 71.35 33.34 69.7 33 68 C32.360625 68.78375 31.72125 69.5675 31.0625 70.375 C27.58507591 73.81324185 23.79607116 74.68806041 19 75 C13.78298117 74.65620963 9.15019667 73.35379398 5.27069092 69.64584351 C-0.52456344 62.13962652 -0.54449397 53.40677607 -0.390625 44.3359375 C-0.38496521 43.06271637 -0.37930542 41.78949524 -0.37347412 40.47769165 C-0.3549977 37.12689809 -0.31919754 33.77723918 -0.2746582 30.42675781 C-0.2334059 26.99423922 -0.21539987 23.56160239 -0.1953125 20.12890625 C-0.15140001 13.41892285 -0.08245109 6.70961602 0 0 Z " fill="#153250" transform="translate(313,80)"/>
<path d="M0 0 C3.10921099 3.5715135 5.33984375 6.71770405 5.33984375 11.4765625 C3.26357805 12.51169497 1.17852896 13.52922461 -0.91015625 14.5390625 C-2.0703125 15.10753906 -3.23046875 15.67601563 -4.42578125 16.26171875 C-7.66015625 17.4765625 -7.66015625 17.4765625 -9.9765625 17.28515625 C-11.66015625 16.4765625 -11.66015625 16.4765625 -13.34765625 14.4765625 C-16.7226504 11.55764864 -20.28258895 11.43625341 -24.66015625 11.4765625 C-25.65015625 11.8065625 -26.64015625 12.1365625 -27.66015625 12.4765625 C-28.66493662 14.3287992 -28.66493662 14.3287992 -28.66015625 16.4765625 C-26.46707807 19.29342976 -24.3872194 20.07534235 -20.984375 20.94140625 C-20.07365234 21.18439453 -19.16292969 21.42738281 -18.22460938 21.67773438 C-16.31857704 22.16556478 -14.4123294 22.65255478 -12.50585938 23.13867188 C-5.64538407 24.97103279 -0.80833465 26.68973647 3.65234375 32.4765625 C7.01971667 38.46300324 7.06190935 44.72898392 6.33984375 51.4765625 C4.45832573 57.59360539 1.59372947 62.2316941 -3.921875 65.5859375 C-13.41219091 70.4483915 -24.551935 70.32832324 -34.66015625 67.4765625 C-41.10697915 64.63739877 -45.36673666 60.29892848 -48.97265625 54.2890625 C-49.66015625 52.4765625 -49.66015625 52.4765625 -49.66015625 49.4765625 C-44.38015625 47.1665625 -39.10015625 44.8565625 -33.66015625 42.4765625 C-32.01015625 44.4565625 -30.36015625 46.4365625 -28.66015625 48.4765625 C-24.71206782 50.76229791 -21.16557952 50.80422965 -16.66015625 50.4765625 C-14.30645818 49.59591323 -14.30645818 49.59591323 -12.66015625 48.4765625 C-12.24234746 46.10350672 -12.24234746 46.10350672 -12.66015625 43.4765625 C-17.27478163 39.97269822 -22.74339745 38.902713 -28.24609375 37.45898438 C-34.23074319 35.80786234 -39.2157008 33.59068614 -43.97265625 29.4765625 C-47.3231563 23.52011796 -48.30936109 16.39190938 -47.09765625 9.6640625 C-45.50101166 4.17993545 -43.19606258 0.13564698 -38.35546875 -3.03125 C-26.29714289 -9.44525312 -10.55478788 -9.68557005 0 0 Z " fill="#153250" transform="translate(769.66015625,85.5234375)"/>
<path d="M0 0 C6.27 0 12.54 0 19 0 C20.42864086 5.47985815 21.85430872 10.9603139 23.27246094 16.44287109 C23.75574794 18.30758049 24.24076185 20.1718432 24.72753906 22.03564453 C25.42707971 24.71531351 26.12038622 27.39652954 26.8125 30.078125 C27.14060669 31.32677338 27.14060669 31.32677338 27.4753418 32.60064697 C27.67554932 33.38115417 27.87575684 34.16166138 28.08203125 34.96582031 C28.25968018 35.64976868 28.4373291 36.33371704 28.62036133 37.03839111 C29 39 29 39 29 43 C29.66 43 30.32 43 31 43 C31.18357056 41.28103516 31.18357056 41.28103516 31.37084961 39.52734375 C31.92667616 35.09872595 32.92571145 30.87227754 34.06640625 26.5625 C34.26475571 25.79695801 34.46310516 25.03141602 34.66746521 24.24267578 C35.29444729 21.8271991 35.92834449 19.41360213 36.5625 17 C36.99199732 15.35038034 37.42103808 13.70064174 37.84960938 12.05078125 C38.89362924 8.03221351 39.94700601 4.01626798 41 0 C47.27 0 53.54 0 60 0 C57.75014975 10.12432614 57.75014975 10.12432614 56.15234375 15.14306641 C55.79857666 16.26097565 55.44480957 17.37888489 55.08032227 18.53067017 C54.70319092 19.70906464 54.32605957 20.88745911 53.9375 22.1015625 C53.33858142 23.98995649 52.73966364 25.87835073 52.14079285 27.76675987 C51.30793663 30.38959359 50.47150756 33.01128249 49.63513184 35.63299561 C48.16971058 40.22908955 46.71001648 44.82700566 45.25024414 49.42489624 C44.47479143 51.86611782 43.69799621 54.30691348 42.91967773 56.7472229 C42.56591064 57.85882782 42.21214355 58.97043274 41.84765625 60.11572266 C41.53836182 61.08563141 41.22906738 62.05554016 40.91040039 63.05484009 C39.89030595 66.35486201 38.94891149 69.6788098 38 73 C32.72 73 27.44 73 22 73 C19.42108954 64.96036006 16.84685693 56.91926678 14.28059578 48.87558174 C13.08851903 45.13976572 11.89448574 41.40459989 10.69580078 37.67089844 C9.53689835 34.06085573 8.38337118 30.44913437 7.23339462 26.83623886 C6.79595861 25.46509868 6.35665965 24.09455125 5.91537857 22.72464371 C3.49558795 15.20824136 1.36458655 7.78924282 0 0 Z " fill="#153250" transform="translate(475,80)"/>
<path d="M0 0 C6.27 0 12.54 0 19 0 C19 7.26 19 14.52 19 22 C22.3 22 25.6 22 29 22 C29 27.61 29 33.22 29 39 C25.7 39 22.4 39 19 39 C19.11826743 43.78735926 19.24251713 48.57451171 19.37231445 53.36157227 C19.41562749 54.99011004 19.45730518 56.61869216 19.49731445 58.24731445 C19.55510503 60.58818935 19.61877398 62.92884176 19.68359375 65.26953125 C19.70030624 65.99775589 19.71701874 66.72598053 19.73423767 67.47627258 C19.82467238 70.56166939 20.01723993 73.05171978 21 76 C23.64 76.33 26.28 76.66 29 77 C29 83.27 29 89.54 29 96 C11.33618844 96.46895075 11.33618844 96.46895075 4.1875 90.75 C-0.49396346 84.86473165 -0.27952879 78.32931726 -0.1953125 71.12890625 C-0.19106766 69.74541237 -0.19106766 69.74541237 -0.18673706 68.33396912 C-0.17560974 65.41000987 -0.15051912 62.48636549 -0.125 59.5625 C-0.11496057 57.57096799 -0.1058364 55.57943114 -0.09765625 53.58789062 C-0.07569483 48.7251405 -0.04121673 43.8626235 0 39 C-2.31 39 -4.62 39 -7 39 C-7 33.39 -7 27.78 -7 22 C-4.69 22 -2.38 22 0 22 C0 14.74 0 7.48 0 0 Z " fill="#153250" transform="translate(414,58)"/>
<path d="M0 0 C6.27 0 12.54 0 19 0 C19.495 40.59 19.495 40.59 20 82 C22.31 82.99 24.62 83.98 27 85 C27 90.94 27 96.88 27 103 C24.48375 103.0825 21.9675 103.165 19.375 103.25 C18.59431152 103.28641602 17.81362305 103.32283203 17.00927734 103.36035156 C11.88674256 103.44098044 9.05625157 102.36711196 5 99 C0.5010927 93.04198763 -0.14503808 88.67952062 -0.11352539 81.39770508 C-0.11367142 80.51944565 -0.11381744 79.64118622 -0.1139679 78.73631287 C-0.11327072 75.83069395 -0.10548739 72.92513898 -0.09765625 70.01953125 C-0.09579138 68.00599706 -0.0943678 65.99246242 -0.09336853 63.97892761 C-0.08954879 58.67708078 -0.07972312 53.37526131 -0.06866455 48.07342529 C-0.05843877 42.66418833 -0.0538684 37.25494696 -0.04882812 31.84570312 C-0.03810039 21.23045479 -0.02050796 10.61523395 0 0 Z " fill="#153250" transform="translate(379,50)"/>
<path d="M0 0 C1.32 0 2.64 0 4 0 C4 11.22 4 22.44 4 34 C7.3 34 10.6 34 14 34 C18.51315789 36.02631579 18.51315789 36.02631579 20 39 C20.64060222 44.17057507 20.89905059 47.80936543 17.6875 52.0625 C13.76031743 54.89372465 10.95164241 55.12803024 6.23095703 55.14526367 C5.04607697 55.15164352 3.8611969 55.15802338 2.64041138 55.16459656 C0.71852493 55.16626579 0.71852493 55.16626579 -1.2421875 55.16796875 C-2.55784698 55.17129715 -3.87350647 55.17462555 -5.22903442 55.17805481 C-8.01483988 55.18404157 -10.80061434 55.1858952 -13.58642578 55.18530273 C-17.14959746 55.1852012 -20.71256949 55.19884663 -24.27569389 55.21607494 C-27.68119474 55.22989381 -31.08665898 55.22928439 -34.4921875 55.23046875 C-36.40800125 55.24124702 -36.40800125 55.24124702 -38.36251831 55.25224304 C-39.5537027 55.24916641 -40.74488708 55.24608978 -41.97216797 55.24291992 C-43.54078079 55.24505745 -43.54078079 55.24505745 -45.14108276 55.24723816 C-49.47106921 54.87278245 -52.15769642 53.79677365 -55.3125 50.8125 C-57.49127399 47.18121002 -57.58645035 45.17845873 -57 41 C-53.92307692 35.46153846 -53.92307692 35.46153846 -51 34 C-49.39645548 33.90983623 -47.78917778 33.88243925 -46.18310547 33.88647461 C-45.18221893 33.88655014 -44.1813324 33.88662567 -43.15011597 33.88670349 C-42.06674957 33.89186478 -40.98338318 33.89702606 -39.8671875 33.90234375 C-38.76021515 33.9037587 -37.6532428 33.90517365 -36.51272583 33.90663147 C-32.96679007 33.91224228 -29.42091677 33.92479663 -25.875 33.9375 C-23.47526133 33.94251361 -21.07552167 33.94707675 -18.67578125 33.95117188 C-12.78383275 33.96221522 -6.89192084 33.9789639 -1 34 C-1.00523682 33.00556885 -1.01047363 32.0111377 -1.01586914 30.98657227 C-1.03392041 27.30966079 -1.04543246 23.63275325 -1.05493164 19.95581055 C-1.05997157 18.36205386 -1.0668035 16.76830181 -1.07543945 15.17456055 C-1.08751999 12.88849747 -1.09323155 10.60249533 -1.09765625 8.31640625 C-1.10281754 7.59973282 -1.10797882 6.88305939 -1.11329651 6.14466858 C-1.11349263 4.42936328 -1.06192007 2.71418734 -1 1 C-0.67 0.67 -0.34 0.34 0 0 Z " fill="#F9F9F9" transform="translate(125,27)"/>
<path d="M0 0 C6.27 0 12.54 0 19 0 C19 24.09 19 48.18 19 73 C12.73 73 6.46 73 0 73 C0 48.91 0 24.82 0 0 Z " fill="#153250" transform="translate(541,80)"/>
<path d="M0 0 C6.27 0 12.54 0 19 0 C19 24.09 19 48.18 19 73 C12.73 73 6.46 73 0 73 C0 48.91 0 24.82 0 0 Z " fill="#153250" transform="translate(451,80)"/>
<path d="M0 0 C3.42252526 2.72713585 5.13407578 4.12935165 5.9609375 8.51171875 C5.3359375 11.19921875 5.3359375 11.19921875 3.3359375 13.19921875 C0.06606657 13.70481224 -1.28940284 13.45102916 -4.05859375 11.58984375 C-4.85652344 10.8834375 -5.65445313 10.17703125 -6.4765625 9.44921875 C-17.39507581 0.29384315 -28.66231379 -1.73920785 -42.59570312 -0.99609375 C-52.58598615 -0.05272425 -61.05435318 5.0183196 -68.3515625 11.63671875 C-70.6640625 13.19921875 -70.6640625 13.19921875 -73.9765625 12.94921875 C-74.8634375 12.70171875 -75.7503125 12.45421875 -76.6640625 12.19921875 C-77.4765625 9.51171875 -77.4765625 9.51171875 -77.6640625 6.19921875 C-75.7265625 3.69921875 -75.7265625 3.69921875 -72.6640625 1.19921875 C-72.05820313 0.70292969 -71.45234375 0.20664063 -70.828125 -0.3046875 C-49.53209394 -17.09740764 -21.76208025 -14.71014516 0 0 Z " fill="#173351" transform="translate(140.6640625,125.80078125)"/>
<path d="M0 0 C8.11872357 5.20599969 8.11872357 5.20599969 10.53125 8.60546875 C10.59375 11.23046875 10.59375 11.23046875 9.53125 13.60546875 C7.32421875 14.98828125 7.32421875 14.98828125 4.53125 15.60546875 C1.734375 14.12109375 1.734375 14.12109375 -1.21875 11.85546875 C-6.32182457 8.22828339 -10.23485966 6.1327715 -16.46875 5.60546875 C-17.13390625 5.53714844 -17.7990625 5.46882812 -18.484375 5.3984375 C-26.99745966 4.9459704 -33.70498278 8.37954084 -40.42578125 13.30078125 C-42.52886297 14.6438583 -43.9876676 15.35383767 -46.46875 15.60546875 C-49.46875 13.60546875 -49.46875 13.60546875 -50.09375 10.85546875 C-49.29582637 6.70626586 -47.79729838 5.50366528 -44.53125 2.98828125 C-31.43384619 -5.79293267 -14.0508914 -7.93697505 0 0 Z " fill="#193552" transform="translate(124.46875,135.39453125)"/>
<path d="M0 0 C3.91597018 3.29975152 3.91597018 3.29975152 4.375 7.125 C4 10 4 10 2 12 C-2.31614631 11.7185122 -4.70736302 10.72494095 -8 8 C-12.81247349 6.39584217 -16.61039259 6.42318183 -21.3125 8.375 C-24.0332743 9.87379219 -24.0332743 9.87379219 -26 12 C-28.5 12.25 -28.5 12.25 -31 12 C-33 10 -33 10 -33.625 7.25 C-32.90788069 3.5209796 -32.31739699 3.02272335 -29.4375 0.75 C-19.76588368 -5.75450252 -10.15154307 -5.03690652 0 0 Z " fill="#193552" transform="translate(119,150)"/>
<path d="M0 0 C6.27 0 12.54 0 19 0 C19 6.27 19 12.54 19 19 C12.73 19 6.46 19 0 19 C0 12.73 0 6.46 0 0 Z " fill="#153250" transform="translate(541,50)"/>
<path d="M0 0 C6.27 0 12.54 0 19 0 C19 6.27 19 12.54 19 19 C12.73 19 6.46 19 0 19 C0 12.73 0 6.46 0 0 Z " fill="#153250" transform="translate(451,50)"/>
<path d="M0 0 C3 1 3 1 4.16796875 2.75 C6.63313301 8.19036251 8.23585001 13.02502268 7 19 C5.59719741 22.18907024 3.92140911 25.09729981 2 28 C0.68 27.67 -0.64 27.34 -2 27 C-0.79618552 24.50638429 0.45428722 22.31856917 2 20 C2.77941226 13.55213497 2.26423544 8.6769312 -1 3 C-0.67 2.01 -0.34 1.02 0 0 Z " fill="#F1F1F1" transform="translate(143,16)"/>
<path d="M0 0 C1.8125 1.125 1.8125 1.125 3 3 C3.3125 6.0625 3.3125 6.0625 3 9 C1 11 1 11 -2.5 11.3125 C-4.2325 11.1578125 -4.2325 11.1578125 -6 11 C-8.15502531 7.76746204 -8.46856135 6.74849077 -8 3 C-5.85607122 -0.27231235 -3.76836426 -0.56525464 0 0 Z " fill="#193552" transform="translate(107,164)"/>
<path d="M0 0 C0.99 0 1.98 0 3 0 C2.50690193 2.21894132 1.95855317 4.08289367 0.9375 6.125 C-0.87548851 11.68483142 -0.8578984 17.11262352 1.5625 22.4375 C2.036875 23.283125 2.51125 24.12875 3 25 C2.67 25.99 2.34 26.98 2 28 C-2.93469482 23.58474674 -4.56266378 20.24878338 -5.4375 13.75 C-4.82838256 8.52899338 -2.5558928 4.53670972 0 0 Z " fill="#F9F9F9" transform="translate(109,16)"/>
<path d="M0 0 C3.7800319 3.65809539 5.16062785 5.47444101 5.3125 10.75 C5.29060812 15.78513261 4.20905771 18.18924396 1 22 C0.01 21.01 -0.98 20.02 -2 19 C-1.67 18.505 -1.34 18.01 -1 17.5 C0.82359473 12.94101317 0.51853136 8.55559408 -1 4 C-1.33 3.34 -1.66 2.68 -2 2 C-1.34 1.34 -0.68 0.68 0 0 Z " fill="#F8F8F8" transform="translate(139,19)"/>
<path d="M0 0 C0.99 0 1.98 0 3 0 C2.649375 0.969375 2.29875 1.93875 1.9375 2.9375 C0.8219212 6.77571518 1.11303067 9.97251471 1.7109375 13.88671875 C2 16 2 16 2 20 C-1 19 -1 19 -2.16796875 17.24609375 C-4.0294064 12.22108602 -3.74026149 6.76252737 -1.6875 1.875 C-1.130625 1.25625 -0.57375 0.6375 0 0 Z " fill="#FAFAFA" transform="translate(114,20)"/>
<path d="M0 0 C1.5 1 1.5 1 3 3 C3.42372144 6.45332972 3.58512383 9.82975235 2 13 C1.01 13 0.02 13 -1 13 C-1.02686553 11.02090602 -1.04633375 9.04171029 -1.0625 7.0625 C-1.07410156 5.96035156 -1.08570313 4.85820312 -1.09765625 3.72265625 C-1 1 -1 1 0 0 Z " fill="#F9F9F9" transform="translate(134,23)"/>
<path d="M0 0 C0.66 0.33 1.32 0.66 2 1 C2 4.96 2 8.92 2 13 C1.01 13 0.02 13 -1 13 C-1.2236337 11.58566794 -1.42826476 10.16832382 -1.625 8.75 C-1.74101563 7.96109375 -1.85703125 7.1721875 -1.9765625 6.359375 C-2.00319395 3.67847541 -1.36592084 2.27305911 0 0 Z " fill="#FCFCFC" transform="translate(119,23)"/>
<path d="M0 0 C1.65 0 3.3 0 5 0 C6.24546405 2.49092811 5.7767578 3.41080733 5 6 C3.35 5.67 1.7 5.34 0 5 C0 3.35 0 1.7 0 0 Z " fill="#243C56" transform="translate(124,68)"/>
<path d="M0 0 C0.99 0.33 1.98 0.66 3 1 C3 2.98 3 4.96 3 7 C1.35 7 -0.3 7 -2 7 C-2.125 4.625 -2.125 4.625 -2 2 C-1.34 1.34 -0.68 0.68 0 0 Z " fill="#263D56" transform="translate(116,67)"/>
<path d="M0 0 C0 2.97 0 5.94 0 9 C-0.99 9 -1.98 9 -3 9 C-3 6.36 -3 3.72 -3 1 C-1 0 -1 0 0 0 Z " fill="#112B45" transform="translate(111,25)"/>
<path d="M0 0 C0.99 0 1.98 0 3 0 C3.33 1.65 3.66 3.3 4 5 C3.01 5.33 2.02 5.66 1 6 C0.34 5.67 -0.32 5.34 -1 5 C-0.67 3.35 -0.34 1.7 0 0 Z " fill="#14304D" transform="translate(135,68)"/>
<path d="M0 0 C2.79872437 2.52788007 4.45773019 4.20411134 5 8 C4.01 8 3.02 8 2 8 C1.01 5.69 0.02 3.38 -1 1 C-0.67 0.67 -0.34 0.34 0 0 Z " fill="#24384E" transform="translate(109,33)"/>
<path d="M0 0 C2 2 2 2 2.125 4.625 C2.08375 5.40875 2.0425 6.1925 2 7 C1.01 7.33 0.02 7.66 -1 8 C-1.125 2.25 -1.125 2.25 0 0 Z " fill="#112B46" transform="translate(115,25)"/>
<path d="M0 0 C2.83022097 3.99560608 1.76210446 7.42737323 1 12 C0.67 12 0.34 12 0 12 C-0.19477739 10.37585622 -0.38059458 8.75063577 -0.5625 7.125 C-0.66691406 6.22007813 -0.77132812 5.31515625 -0.87890625 4.3828125 C-1 2 -1 2 0 0 Z " fill="#0F2841" transform="translate(137,22)"/>
<path d="M0 0 C0.99 0.33 1.98 0.66 3 1 C2.67 2.32 2.34 3.64 2 5 C1.34 5 0.68 5 0 5 C-0.33 4.01 -0.66 3.02 -1 2 C-0.67 1.34 -0.34 0.68 0 0 Z " fill="#2C4055" transform="translate(116,22)"/>
<path d="M0 0 C0.66 1.32 1.32 2.64 2 4 C1.01 4.495 1.01 4.495 0 5 C-0.66 4.67 -1.32 4.34 -2 4 C-2 3.34 -2 2.68 -2 2 C-1.34 2 -0.68 2 0 2 C0 1.34 0 0.68 0 0 Z " fill="#112B46" transform="translate(136,34)"/>
<path d="M0 0 C0.66 0 1.32 0 2 0 C1.67 1.32 1.34 2.64 1 4 C0.34 4 -0.32 4 -1 4 C-0.67 2.68 -0.34 1.36 0 0 Z " fill="#34475B" transform="translate(116,32)"/>
<path d="" fill="#606A78" transform="translate(0,0)"/>
<path d="M0 0 C0.66 0.66 1.32 1.32 2 2 C1.34 2 0.68 2 0 2 C0 1.34 0 0.68 0 0 Z " fill="#9AA1AB" transform="translate(177,31)"/>
<path d="M0 0 C2 1 2 1 2 1 Z " fill="#6C7482" transform="translate(88,205)"/>
<path d="" fill="#9FA4AA" transform="translate(0,0)"/>
<path d="" fill="#A6A9AF" transform="translate(0,0)"/>
<path d="" fill="#6C7482" transform="translate(0,0)"/>
<path d="" fill="#757B86" transform="translate(0,0)"/>
<path d="" fill="#6C7482" transform="translate(0,0)"/>
<path d="" fill="#9FA4AA" transform="translate(0,0)"/>
<path d="" fill="#38475D" transform="translate(0,0)"/>
<path d="" fill="#888D95" transform="translate(0,0)"/>
<path d="" fill="#C3C7C9" transform="translate(0,0)"/>
<path d="" fill="#93979F" transform="translate(0,0)"/>
<path d="" fill="#163250" transform="translate(0,0)"/>
<path d="" fill="#868992" transform="translate(0,0)"/>
<path d="" fill="#787E88" transform="translate(0,0)"/>
<path d="" fill="#787E88" transform="translate(0,0)"/>
<path d="" fill="#AAACB2" transform="translate(0,0)"/>
<path d="" fill="#B2B5B9" transform="translate(0,0)"/>
<path d="" fill="#A0A4AA" transform="translate(0,0)"/>
<path d="" fill="#C5C6CA" transform="translate(0,0)"/>
<path d="" fill="#B4B5BB" transform="translate(0,0)"/>
<path d="" fill="#334860" transform="translate(0,0)"/>
<path d="" fill="#C8C8CC" transform="translate(0,0)"/>
<path d="" fill="#BBBBC0" transform="translate(0,0)"/>
<path d="" fill="#B3B6BA" transform="translate(0,0)"/>
<path d="" fill="#A0A4AA" transform="translate(0,0)"/>
<path d="" fill="#A8ABB1" transform="translate(0,0)"/>
<path d="" fill="#93979F" transform="translate(0,0)"/>
<path d="" fill="#ABADB2" transform="translate(0,0)"/>
<path d="" fill="#979AA1" transform="translate(0,0)"/>
<path d="" fill="#B7B9BE" transform="translate(0,0)"/>
<path d="" fill="#A6A8AF" transform="translate(0,0)"/>
<path d="" fill="#CACCCF" transform="translate(0,0)"/>
<path d="" fill="#BDBFC3" transform="translate(0,0)"/>
<path d="" fill="#405268" transform="translate(0,0)"/>
<path d="" fill="#D1D4D5" transform="translate(0,0)"/>
<path d="" fill="#C6C9CB" transform="translate(0,0)"/>
<path d="" fill="#394D63" transform="translate(0,0)"/>
<path d="" fill="#D4D5D8" transform="translate(0,0)"/>
<path d="" fill="#C9CBCE" transform="translate(0,0)"/>
<path d="" fill="#3E5067" transform="translate(0,0)"/>
<path d="" fill="#2F445D" transform="translate(0,0)"/>
<path d="" fill="#C3C7C9" transform="translate(0,0)"/>
<path d="" fill="#C2C4C7" transform="translate(0,0)"/>
<path d="" fill="#32475F" transform="translate(0,0)"/>
<path d="" fill="#D1D1D6" transform="translate(0,0)"/>
<path d="" fill="#C9C9CF" transform="translate(0,0)"/>
<path d="" fill="#C7CACC" transform="translate(0,0)"/>
<path d="" fill="#B9BCBF" transform="translate(0,0)"/>
<path d="" fill="#BFC0C4" transform="translate(0,0)"/>
<path d="" fill="#ABADB2" transform="translate(0,0)"/>
<path d="" fill="#A2A4AB" transform="translate(0,0)"/>
<path d="" fill="#153250" transform="translate(0,0)"/>
<path d="" fill="#9A9FA6" transform="translate(0,0)"/>
<path d="" fill="#3C4E65" transform="translate(0,0)"/>
<path d="" fill="#9A9FA6" transform="translate(0,0)"/>
<path d="" fill="#B8B9BE" transform="translate(0,0)"/>
<path d="" fill="#A2A4AB" transform="translate(0,0)"/>
<path d="" fill="#BFC0C4" transform="translate(0,0)"/>
<path d="" fill="#C7CACC" transform="translate(0,0)"/>
<path d="" fill="#B6B9BD" transform="translate(0,0)"/>
<path d="" fill="#D1D1D6" transform="translate(0,0)"/>
<path d="" fill="#253C57" transform="translate(0,0)"/>
<path d="" fill="#32475F" transform="translate(0,0)"/>
<path d="" fill="#C3C7C9" transform="translate(0,0)"/>
<path d="" fill="#B0B5B8" transform="translate(0,0)"/>
<path d="" fill="#C0C2C6" transform="translate(0,0)"/>
<path d="" fill="#C9CBCE" transform="translate(0,0)"/>
<path d="" fill="#BDC0C3" transform="translate(0,0)"/>
<path d="" fill="#C6C9CB" transform="translate(0,0)"/>
<path d="" fill="#CECFD0" transform="translate(0,0)"/>
<path d="" fill="#B2B4B9" transform="translate(0,0)"/>
<path d="" fill="#989BA3" transform="translate(0,0)"/>
<path d="" fill="#A6A8AF" transform="translate(0,0)"/>
<path d="" fill="#878B94" transform="translate(0,0)"/>
<path d="" fill="#979AA1" transform="translate(0,0)"/>
<path d="" fill="#828891" transform="translate(0,0)"/>
<path d="" fill="#93979F" transform="translate(0,0)"/>
<path d="" fill="#92969E" transform="translate(0,0)"/>
<path d="" fill="#BBBBC0" transform="translate(0,0)"/>
<path d="" fill="#BBBBC0" transform="translate(0,0)"/>
<path d="" fill="#D1D3D6" transform="translate(0,0)"/>
<path d="" fill="#D1D3D6" transform="translate(0,0)"/>
<path d="" fill="#B4B5BB" transform="translate(0,0)"/>
<path d="" fill="#A8A9B0" transform="translate(0,0)"/>
<path d="" fill="#A0A4AA" transform="translate(0,0)"/>
<path d="" fill="#AAACB2" transform="translate(0,0)"/>
<path d="" fill="#9C9FA6" transform="translate(0,0)"/>
<path d="" fill="#656C79" transform="translate(0,0)"/>
<path d="" fill="#747884" transform="translate(0,0)"/>
<path d="" fill="#4D5869" transform="translate(0,0)"/>
<path d="" fill="#868992" transform="translate(0,0)"/>
<path d="" fill="#747884" transform="translate(0,0)"/>
<path d="" fill="#656C79" transform="translate(0,0)"/>
<path d="" fill="#B1B2B8" transform="translate(0,0)"/>
<path d="" fill="#9C9FA6" transform="translate(0,0)"/>
<path d="" fill="#B3B6BA" transform="translate(0,0)"/>
<path d="" fill="#91969D" transform="translate(0,0)"/>
<path d="" fill="#153250" transform="translate(0,0)"/>
<path d="" fill="#C3C3C8" transform="translate(0,0)"/>
<path d="" fill="#DADBDE" transform="translate(0,0)"/>
<path d="" fill="#C8C8CC" transform="translate(0,0)"/>
<path d="" fill="#B3B6BA" transform="translate(0,0)"/>
<path d="" fill="#A8ABB1" transform="translate(0,0)"/>
<path d="" fill="#ABADB2" transform="translate(0,0)"/>
<path d="" fill="#B7B9BE" transform="translate(0,0)"/>
<path d="" fill="#CACCCF" transform="translate(0,0)"/>
<path d="" fill="#405268" transform="translate(0,0)"/>
<path d="" fill="#D1D4D5" transform="translate(0,0)"/>
<path d="" fill="#C6C9CB" transform="translate(0,0)"/>
<path d="" fill="#394D63" transform="translate(0,0)"/>
<path d="" fill="#D4D5D8" transform="translate(0,0)"/>
<path d="" fill="#42546A" transform="translate(0,0)"/>
<path d="" fill="#CFD2D3" transform="translate(0,0)"/>
<path d="" fill="#45576C" transform="translate(0,0)"/>
<path d="" fill="#CCCCCF" transform="translate(0,0)"/>
<path d="" fill="#C6C7CB" transform="translate(0,0)"/>
<path d="" fill="#2F435D" transform="translate(0,0)"/>
<path d="" fill="#C6C7CB" transform="translate(0,0)"/>
<path d="" fill="#CCCCCF" transform="translate(0,0)"/>
<path d="" fill="#D2D4D6" transform="translate(0,0)"/>
<path d="" fill="#DADADE" transform="translate(0,0)"/>
<path d="" fill="#374A62" transform="translate(0,0)"/>
<path d="" fill="#45576C" transform="translate(0,0)"/>
<path d="" fill="#CFD2D3" transform="translate(0,0)"/>
<path d="" fill="#C3C7C9" transform="translate(0,0)"/>
<path d="" fill="#2D425B" transform="translate(0,0)"/>
<path d="" fill="#42546A" transform="translate(0,0)"/>
<path d="" fill="#394D63" transform="translate(0,0)"/>
<path d="" fill="#405268" transform="translate(0,0)"/>
<path d="" fill="#C8C8CC" transform="translate(0,0)"/>
<path d="" fill="#C3C3C8" transform="translate(0,0)"/>
<path d="" fill="#B3B6BA" transform="translate(0,0)"/>
<path d="" fill="#92969D" transform="translate(0,0)"/>
<path d="" fill="#9D9FA6" transform="translate(0,0)"/>
<path d="" fill="#666D7A" transform="translate(0,0)"/>
</svg>
